<?xml version="1.0" encoding="utf-8"?>
<!-- Generator: Adobe Illustrator 21.0.2, SVG Export Plug-In . SVG Version: 6.00 Build 0)  -->
<svg version="1.1" id="Layer_1" xmlns="http://www.w3.org/2000/svg" xmlns:xlink="http://www.w3.org/1999/xlink" x="0px" y="0px" viewBox="0 0 481.4 512" style="enable-background:new 0 0 481.4 512;" xml:space="preserve" width="63" height="67">
    <g>
        <g>
            <path style="fill:#0FC4E4;" d="M133.2,65.8c-3.5-4.4-9.9-5.1-14.3-1.6c-46.4,37.2-73,92.6-73,152c0,5.6,4.6,10.2,10.2,10.2
			c5.6,0,10.2-4.6,10.2-10.2c0-53.2,23.8-102.7,65.3-136.1C136,76.6,136.7,70.2,133.2,65.8z" />
        </g>
    </g>
    <g>
        <g>
            <path style="fill:#C2C6C6;" d="M76.4,274.8c-2.1-5.9-3.9-12-5.3-18.1c-1.3-5.5-6.8-8.9-12.3-7.6c-5.5,1.3-8.9,6.8-7.6,12.3
			c1.6,6.8,3.6,13.6,6,20.2c1.5,4.2,5.4,6.8,9.6,6.8c1.1,0,2.3-0.2,3.4-0.6C75.5,285.9,78.3,280.1,76.4,274.8z" />
        </g>
    </g>
    <g>
        <g>
            <path style="fill:#C2C6C6;" d="M100.4,33c-3.6-4.3-10.1-4.9-14.4-1.3C31.4,77.7,0,144.9,0,216.2c0,35.4,7.5,69.5,22.4,101.4
			c1.7,3.7,5.4,5.9,9.3,5.9c1.4,0,2.9-0.3,4.3-1c5.1-2.4,7.3-8.4,4.9-13.5c-13.6-29.2-20.5-60.4-20.5-92.8
			c0-65.3,28.7-126.8,78.8-168.8C103.5,43.8,104.1,37.3,100.4,33z" />
        </g>
    </g>
    <g>
        <g>
            <path style="fill:#0FC4E4;" d="M362.6,64.2c-4.4-3.5-10.8-2.8-14.3,1.6c-3.5,4.4-2.8,10.8,1.6,14.3
			c41.5,33.3,65.3,82.9,65.3,136.1c0,20.1-3.4,39.8-10.1,58.5c-1.9,5.3,0.9,11.1,6.2,13c1.1,0.4,2.3,0.6,3.4,0.6
			c4.2,0,8.1-2.6,9.6-6.8c7.5-21,11.3-43,11.3-65.4C435.5,156.9,408.9,101.5,362.6,64.2z" />
        </g>
    </g>
    <g>
        <g>
            <path style="fill:#C2C6C6;" d="M405.8,41.1c-3.4-3.2-6.9-6.3-10.4-9.3c-4.3-3.6-10.7-3.1-14.4,1.3c-3.6,4.3-3.1,10.7,1.3,14.4
			c3.3,2.7,6.5,5.6,9.6,8.5c2,1.9,4.5,2.8,7,2.8c2.7,0,5.4-1.1,7.4-3.2C410.1,51.4,409.9,44.9,405.8,41.1z" />
        </g>
    </g>
    <g>
        <g>
            <path style="fill:#C2C6C6;" d="M434.5,73.5c-3.3-4.5-9.7-5.5-14.3-2.2s-5.5,9.7-2.2,14.3c28.1,38,42.9,83.2,42.9,130.6
			c0,32.4-6.9,63.6-20.5,92.8c-2.4,5.1-0.2,11.2,4.9,13.5c1.4,0.6,2.9,1,4.3,1c3.8,0,7.5-2.2,9.3-5.9c14.8-31.9,22.4-66,22.4-101.4
			C481.4,164.4,465.2,115.1,434.5,73.5z" />
        </g>
    </g>
    <g>
        <g>
            <path style="fill:#C2C6C6;" d="M468.4,440.4c-39.2,0-79-88.7-79-138.3v-86c0-28-7.7-55.3-22.4-79c-12.9-20.9-30.7-38.3-51.7-50.6
			c0.5-3.7,0.8-7.4,0.8-11.1c0-41.6-33.8-75.4-75.4-75.4s-75.4,33.8-75.4,75.4c0,3.7,0.3,7.3,0.8,10.9c-45.9,26.6-74,75.2-74,128.6
			v87.3c0,49.6-39.8,138.3-79,138.3c-5.6,0-10.2,4.6-10.2,10.2s4.6,10.2,10.2,10.2h167.2c4.9,29,30.1,51.2,60.5,51.2
			s55.6-22.2,60.5-51.2h167.2c5.6,0,10.2-4.6,10.2-10.2C478.6,445,474,440.4,468.4,440.4z M185.7,75.4c0-30.3,24.7-55,55-55
			s55,24.7,55,55c0,0.5,0,1,0,1.4l0,0c-5.5-2.2-11.2-4.1-17-5.7l0,0c-2.1-19.1-18.4-34.1-38.1-34.1c-19.7,0-35.9,14.9-38.1,34l0,0
			c-5.8,1.5-11.5,3.4-17,5.6l0,0C185.7,76.3,185.7,75.8,185.7,75.4z M256.5,67.1c-5.2-0.6-10.5-0.9-15.7-0.9
			c-5.3,0-10.6,0.3-15.9,0.8c3-5.7,9-9.5,15.8-9.5C247.6,57.5,253.5,61.4,256.5,67.1z M240.7,491.6c-19.1,0-35.1-13.1-39.7-30.8
			h79.4C275.8,478.5,259.8,491.6,240.7,491.6z M291.9,440.4L291.9,440.4l-102.3,0H56.1c10.4-10.1,20.2-23.8,29-40.8
			c16.3-31.3,27.3-70.5,27.3-97.4v-87.3c0-48.3,26.7-92.1,69.7-114.2c10.3-5.3,21.4-9.2,32.7-11.5c8.4-1.7,17.1-2.6,25.8-2.6
			c0,0,0,0,0.1,0c8.6,0,17.3,0.9,25.7,2.6c11.4,2.3,22.3,6.3,32.7,11.6c43.1,22.4,69.8,66.6,69.8,115.3v86c0,27,11,66.1,27.3,97.4
			c8.9,17,18.7,30.7,29,40.8L291.9,440.4L291.9,440.4z" />
        </g>
    </g>
    <g>
        <g>
            <path style="fill:#C2C6C6;" d="M204.5,123.5c-2.6-5-8.7-7-13.7-4.4c-36.7,18.8-59.5,56.1-59.5,97.3V279c0,5.6,4.6,10.2,10.2,10.2
			c5.6,0,10.2-4.6,10.2-10.2v-62.5c0-33.5,18.5-63.9,48.4-79.2C205.1,134.7,207.1,128.5,204.5,123.5z" />
        </g>
    </g>
    <g>
        <g>
            <path style="fill:#C2C6C6;" d="M262.7,109.3c-7.2-1.5-14.6-2.2-21.9-2.2c0,0,0,0,0,0c-5.6,0-10.2,4.6-10.2,10.2
			c0,5.6,4.6,10.2,10.2,10.2c6,0,12,0.6,17.8,1.8c0.7,0.1,1.4,0.2,2.1,0.2c4.7,0,9-3.3,10-8.1C271.8,115.9,268.2,110.5,262.7,109.3z
			" />
        </g>
    </g>
</svg>