<?xml version="1.0" encoding="utf-8"?>
<!-- Generator: Adobe Illustrator 21.0.2, SVG Export Plug-In . SVG Version: 6.00 Build 0)  -->
<svg version="1.1" id="Layer_1" xmlns="http://www.w3.org/2000/svg" xmlns:xlink="http://www.w3.org/1999/xlink" x="0px" y="0px" viewBox="0 0 512 461" style="enable-background:new 0 0 512 461;" xml:space="preserve" width="67" height="60">
    <g>
        <g>
            <path style="fill:#C2C6C6;" d="M40.3,0c-5.6,0-10.2,4.6-10.2,10.2v8.2c0,5.6,4.6,10.2,10.2,10.2S50.5,24,50.5,18.4v-8.2
			C50.5,4.6,45.9,0,40.3,0z" />
        </g>
    </g>
    <g>
        <g>
            <path style="fill:#C2C6C6;" d="M475.3,67.3H325.4c-5.6,0-10.2,4.6-10.2,10.2s4.6,10.2,10.2,10.2h149.9c5.6,0,10.2-4.6,10.2-10.2
			S480.9,67.3,475.3,67.3z" />
        </g>
    </g>
    <g>
        <g>
            <path style="fill:#C2C6C6;" d="M280.5,67.3h-14.3c-5.6,0-10.2,4.6-10.2,10.2s4.6,10.2,10.2,10.2h14.3c5.6,0,10.2-4.6,10.2-10.2
			S286.1,67.3,280.5,67.3z" />
        </g>
    </g>
    <g>
        <g>
            <path style="fill:#C2C6C6;" d="M501.8,40.8h-19.9V10.2c0-5.6-4.6-10.2-10.2-10.2s-10.2,4.6-10.2,10.2v30.6H374V10.2
			C374,4.6,369.4,0,363.8,0s-10.2,4.6-10.2,10.2v30.6h-87.5V10.2c0-5.6-4.6-10.2-10.2-10.2s-10.2,4.6-10.2,10.2v30.6h-87.5V10.2
			C158.2,4.6,153.6,0,148,0s-10.2,4.6-10.2,10.2v30.6H10.2C4.6,40.8,0,45.4,0,51v398.8c0,5.6,4.6,10.2,10.2,10.2h491.6
			c5.6,0,10.2-4.6,10.2-10.2V51C512,45.4,507.4,40.8,501.8,40.8z M491.6,439.6H20.4V61.2h471.2V439.6L491.6,439.6z" />
        </g>
    </g>
    <g>
        <g>
            <path style="fill:#C2C6C6;" d="M461,290.9v-187c0-5.6-4.6-10.2-10.2-10.2H61.2c-5.6,0-10.2,4.6-10.2,10.2V398
			c0,5.6,4.6,10.2,10.2,10.2H342c15,14.4,35.4,23.3,57.8,23.3c46.1,0,83.6-37.5,83.6-83.6C483.4,325.8,474.9,305.8,461,290.9z
			 M382.3,114h58.3v51.6h-58.3V114z M382.3,186h58.3v54.8h-58.3V186z M382.3,261.3h58.3v13.6c-12.1-6.8-26-10.7-40.8-10.7
			c-6,0-11.9,0.6-17.5,1.9V261.3z M305,114h56.9v51.6H305V114z M305,186h56.9v54.8H305V186z M305,261.3h56.9v12
			c-17.7,9-31.8,24.2-39.4,42.7H305V261.3z M128.9,387.8H71.4v-51.4h57.5V387.8L128.9,387.8z M128.9,315.9H71.4v-54.7h57.5V315.9
			L128.9,315.9z M128.9,240.9H71.4V186h57.5V240.9L128.9,240.9z M128.9,165.6H71.4V114h57.5V165.6L128.9,165.6z M207,387.8h-57.7
			v-51.4H207V387.8L207,387.8z M207,315.9h-57.7v-54.7H207V315.9L207,315.9z M207,240.9h-57.7V186H207V240.9L207,240.9z M207,165.6
			h-57.7V114H207V165.6L207,165.6z M284.6,387.8h-57.3v-51.4h57.3V387.8z M284.6,315.9h-57.3v-54.7h57.3V315.9z M284.6,240.9h-57.3
			V186h57.3V240.9z M284.6,165.6h-57.3V114h57.3V165.6z M305,387.8v-51.4h12c-0.5,3.7-0.8,7.6-0.8,11.5c0,14.5,3.7,28.1,10.2,40H305
			V387.8z M399.8,411c-34.9,0-63.2-28.4-63.2-63.2s28.4-63.2,63.2-63.2S463,313,463,347.8C463,382.7,434.7,411,399.8,411z" />
        </g>
    </g>
    <g>
        <g>
            <path style="fill:#0FC4E4;" d="M438.6,321.2c-4-4-10.4-4-14.4,0l-39.7,39.7l-13.2-13.2c-4-4-10.4-4-14.4,0s-4,10.4,0,14.4
			l20.4,20.4c2,2,4.6,3,7.2,3s5.2-1,7.2-3l46.9-46.9C442.6,331.7,442.6,325.2,438.6,321.2z" />
        </g>
    </g>
</svg>