<?xml version="1.0" encoding="utf-8"?>
<!-- Generator: Adobe Illustrator 21.0.2, SVG Export Plug-In . SVG Version: 6.00 Build 0)  -->
<svg version="1.1" id="Layer_1" xmlns="http://www.w3.org/2000/svg" xmlns:xlink="http://www.w3.org/1999/xlink" x="0px" y="0px" viewBox="0 0 512 512" style="enable-background:new 0 0 512 512;" xml:space="preserve" width="66" height="66">
    <g>
        <g>
            <path style="fill:#C2C6C6;" d="M437,75C388.7,26.6,324.4,0,256,0C187.6,0,123.3,26.6,75,75C26.6,123.3,0,187.6,0,256
			s26.6,132.7,75,181c48.4,48.4,112.6,75,181,75c68.4,0,132.7-26.6,181-75c48.4-48.4,75-112.6,75-181S485.4,123.3,437,75z
			 M256,491.6C126.1,491.6,20.4,385.9,20.4,256S126.1,20.4,256,20.4S491.6,126.1,491.6,256S385.9,491.6,256,491.6z" />
        </g>
    </g>
    <g>
        <g>
            <path style="fill:#C2C6C6;" d="M256,48.5C141.6,48.5,48.5,141.6,48.5,256S141.6,463.5,256,463.5S463.5,370.4,463.5,256
			S370.4,48.5,256,48.5z M256,443.1c-103.2,0-187.1-83.9-187.1-187.1S152.8,68.9,256,68.9S443.1,152.8,443.1,256
			S359.2,443.1,256,443.1z" />
        </g>
    </g>
    <g>
        <g>
            <path style="fill:#C2C6C6;" d="M403.5,244.5c-5.6,0-10.2,4.6-10.2,10.2c0,4.9-0.3,9.8-0.8,14.6c-0.6,5.6,3.5,10.6,9.1,11.2
			c0.4,0,0.7,0.1,1.1,0.1c5.2,0,9.6-3.9,10.1-9.1c0.6-5.5,0.9-11.1,0.9-16.7C413.7,249,409.1,244.5,403.5,244.5z" />
        </g>
    </g>
    <g>
        <g>
            <path style="fill:#0FC4E4;" d="M346.6,245.8h-58.2c-3.3-10.5-11.6-18.8-22.1-22.1V95.4c0-5.6-4.6-10.2-10.2-10.2
			c-5.6,0-10.2,4.6-10.2,10.2v128.3c-13.7,4.3-23.7,17.2-23.7,32.3c0,18.7,15.2,33.9,33.9,33.9c15.1,0,28-10,32.3-23.7h58.2
			c5.6,0,10.2-4.6,10.2-10.2C356.8,250.4,352.2,245.8,346.6,245.8z M256,269.5c-7.5,0-13.5-6.1-13.5-13.5s6.1-13.5,13.5-13.5
			c7.5,0,13.5,6.1,13.5,13.5S263.5,269.5,256,269.5z" />
        </g>
    </g>
    <g>
        <g>
            <path style="fill:#C2C6C6;" d="M396.6,300.6c-5.2-2.1-11.2,0.4-13.3,5.6c-21.1,51.9-70.9,85.4-127,85.4c-75.5,0-137-61.5-137-137
			c0-45.1,22.5-87.5,59.4-112.9l0.4,0.9c3.2,7.7,13.6,9,18.6,2.3l14.2-18.8c5-6.6,1-16.2-7.3-17.3l-23.4-2.9
			c-8.3-1-14.5,7.3-11.3,15l0.7,1.7c-20.5,13.3-37.7,31.3-50.1,52.4c-14.1,24-21.6,51.6-21.6,79.6c0,86.8,70.6,157.4,157.4,157.4
			c31.9,0,62.7-9.5,88.9-27.5c25.6-17.6,45.3-42,57-70.7C404.3,308.7,401.8,302.7,396.6,300.6z" />
        </g>
    </g>
</svg>