<?xml version="1.0" encoding="utf-8"?>
<!-- Generator: Adobe Illustrator 21.0.2, SVG Export Plug-In . SVG Version: 6.00 Build 0)  -->
<svg version="1.1" id="Layer_1" xmlns="http://www.w3.org/2000/svg" xmlns:xlink="http://www.w3.org/1999/xlink" x="0px" y="0px" viewBox="0 0 423.8 512" style="enable-background:new 0 0 423.8 512;" xml:space="preserve" width="57" height="70">
    <g>
        <g>
            <path style="fill:#C2C6C6;" d="M252.8,105.9c-17-14.2-41.2-23.3-71.8-27c-24.6-3-48.1-1.8-63.6-0.4c-12.1,1.2-21.2,11.2-21.2,23.4
			v17.7c0,4.1,3.4,7.5,7.5,7.5s7.5-3.4,7.5-7.5V102c0-4.4,3.3-8.1,7.7-8.5c25.8-2.5,89.5-5.1,124.3,23.9c3.2,2.7,7.9,2.2,10.6-1
			C256.4,113.3,256,108.6,252.8,105.9z" />
        </g>
    </g>
    <g>
        <g>
            <path style="fill:#C2C6C6;" d="M256,0H151.8c-14.9,0-29.1,6-39.5,16.6C85,20.3,64.1,43.9,64.1,71.6v22.3c0,12.4,1.5,24.8,4.5,36.8
			l3.5,13.9v28c0,34,15.7,64.5,40.1,84.2v26.7c-4.3,0.5-8.4,2.9-11.1,6.8l-10.3,15.5l-54.2,19.7c-21.9,8-36.6,29-36.6,52.2v70.5
			c0,4.1,3.4,7.5,7.5,7.5s7.5-3.4,7.5-7.5v-70.5c0-17,10.7-32.3,26.7-38.2l51.2-18.6l31.3,43.8c2.7,3.7,6.8,6.1,11.3,6.4
			c0.4,0,0.9,0.1,1.3,0.1c4.1,0,8-1.6,11-4.5l4.7-4.7c0.4,3.5,2,6.6,4.4,9l-4.5,76.8c-0.2,4.1,2.9,7.7,7,7.9c0.1,0,0.3,0,0.4,0
			c3.9,0,7.2-3.1,7.5-7.1l4.3-73.1h8.5l4.3,73.1c0.2,4,3.5,7.1,7.5,7.1c0.1,0,0.3,0,0.4,0c4.1-0.2,7.3-3.8,7-7.9l-4.5-76.8
			c2.4-2.4,4-5.5,4.4-9l4.7,4.7c2.9,2.9,6.9,4.5,11,4.5c0.4,0,0.9,0,1.3-0.1c4.6-0.4,8.7-2.7,11.3-6.4l34.6-48.4
			c1.8-2.5,1.9-5.9,0.1-8.5l-11.7-17.6c-2.6-4-6.7-6.3-11.1-6.8v-25.8c3.1-2.4,6.2-5.1,9-7.9c20-19.7,31-45.9,31-74v-31.1l3.5-13.9
			c3-12,4.5-24.4,4.5-36.8V31.5C287.5,14.2,273.4,0,256,0z M137.1,356.2c0,0-0.2,0.2-0.4,0.1c-0.2,0-0.3-0.2-0.4-0.2L104.8,312
			l8.8-13.3c0.2-0.2,0.5-0.3,0.7-0.2l49.5,31L137.1,356.2z M183.9,360.7h-16c-0.3,0-0.5-0.2-0.5-0.5v-12.9l8.5-8.5l8.5,8.5v12.9h0
			C184.4,360.5,184.1,360.7,183.9,360.7z M175.8,319.3l-48.6-30.4v-22c14,7.7,29.9,12.3,46.7,12.6c0.7,0,1.3,0,2,0
			c17.2,0,33.8-4.2,48.6-12v21.4c0,0,0,0,0,0L175.8,319.3z M246.9,312l-31.6,44.2c0,0.1-0.1,0.2-0.4,0.2c-0.3,0-0.4-0.1-0.4-0.1
			l-26.7-26.7l49.5-31c0.2-0.1,0.5-0.1,0.7,0.2L246.9,312z M272.5,93.9c0,11.2-1.4,22.3-4.1,33.2l-3.7,14.8
			c-0.1,0.6-0.2,1.2-0.2,1.8v32.1c0,24-9.4,46.5-26.6,63.3c-17.1,16.8-39.8,25.9-63.8,25.4c-48-0.9-87-42.1-87-91.9v-28.9
			c0-0.6-0.1-1.2-0.2-1.8l-3.7-14.8c-2.7-10.8-4.1-22-4.1-33.2V71.6c0-21,16.4-38.7,37.3-40.4c1.9-0.2,3.7-1.1,5-2.5
			C129.2,20,140.2,15,151.8,15H256c9.1,0,16.5,7.4,16.5,16.5V93.9z" />
        </g>
    </g>
    <g>
        <g>
            <path style="fill:#C2C6C6;" d="M66.9,390.2l-4.6-9.3c-1.9-3.7-6.4-5.2-10.1-3.4c-3.7,1.9-5.2,6.4-3.4,10.1l4.6,9.3
			c1.7,3.4,2.6,7.2,2.6,11v40.5c0,4.1,3.4,7.5,7.5,7.5s7.5-3.4,7.5-7.5v-40.5C71.1,401.7,69.7,395.6,66.9,390.2z" />
        </g>
    </g>
    <g>
        <g>
            <path style="fill:#C2C6C6;" d="M328.1,320.6c-52.8,0-95.7,42.9-95.7,95.7c0,52.8,42.9,95.7,95.7,95.7s95.7-42.9,95.7-95.7
			C423.8,363.6,380.9,320.6,328.1,320.6z M328.1,497c-44.5,0-80.7-36.2-80.7-80.7s36.2-80.7,80.7-80.7s80.7,36.2,80.7,80.7
			C408.8,460.8,372.6,497,328.1,497z" />
        </g>
    </g>
    <g>
        <g>
            <path style="fill:#0FC4E4;" d="M363.4,408.8h-27.8v-27.8c0-4.1-3.4-7.5-7.5-7.5s-7.5,3.4-7.5,7.5v27.8h-27.8
			c-4.1,0-7.5,3.4-7.5,7.5s3.4,7.5,7.5,7.5h27.8v27.8c0,4.1,3.4,7.5,7.5,7.5s7.5-3.4,7.5-7.5v-27.8h27.8c4.1,0,7.5-3.4,7.5-7.5
			S367.6,408.8,363.4,408.8z" />
        </g>
    </g>
</svg>