<?xml version="1.0" encoding="utf-8"?>
<!-- Generator: Adobe Illustrator 21.0.2, SVG Export Plug-In . SVG Version: 6.00 Build 0)  -->
<svg version="1.1" id="Layer_1" xmlns="http://www.w3.org/2000/svg" xmlns:xlink="http://www.w3.org/1999/xlink" x="0px" y="0px" viewBox="0 0 512 487.1" style="enable-background:new 0 0 512 487.1;" xml:space="preserve" width="73" height="70">
    <g>
        <g>
            <path style="fill:#C2C6C6;" d="M512,182.4c0-5.6-4.6-10.2-10.2-10.2c-5.6,0-10.2,4.6-10.2,10.2c0,8.7-5.9,16-13.9,18.3
			c-10.9-23.2-28.6-44.4-52.4-62.2C394,115,354.7,99.6,312.1,93.7c9.8-10,15.8-23.6,15.8-38.6c0-30.4-24.7-55.1-55.1-55.1
			s-55.1,24.7-55.1,55.1c0,15,6.1,28.7,15.8,38.6c-22,3.2-43.5,9.1-63.5,17.6c-22.7-19.6-55.1-24.5-82.9-11.9
			c-3,1.4-5.1,4.1-5.8,7.3s0.3,6.5,2.5,8.9l28.5,30.6c-16.4,13.8-29.9,29.6-39.7,46.5H21.8c-12,0-21.8,9.8-21.8,21.8v59.9
			c0,9.6,6.1,17.9,15.3,20.8L61,309.6c12.9,36.8,42.7,55.8,62.8,68.6c0.8,0.5,1.6,1,2.3,1.5l13.9,98.7c0.7,5,5,8.8,10.1,8.8h48.2
			c5.1,0,9.4-3.7,10.1-8.8l8.7-61.5c17.9,3.5,36.4,5.3,55.1,5.3c19.8,0,39.4-2,58.3-6l8.8,62.2c0.7,5,5,8.8,10.1,8.8h48.2
			c5.1,0,9.4-3.7,10.1-8.8L422,377c43.5-31.2,68.4-74.9,68.4-120.5c0-12.5-1.8-24.8-5.3-36.8C500.7,214.6,512,199.8,512,182.4z
			 M272.8,20.4c19.2,0,34.7,15.6,34.7,34.7s-15.6,34.7-34.7,34.7S238,74.3,238,55.1C238,36,253.6,20.4,272.8,20.4z M406.8,362.8
			c-2.4,1.6-3.9,4.2-4.3,7l-13.7,96.9h-30.5l-9.1-64.4c-0.4-2.9-2-5.4-4.4-7c-2.4-1.6-5.4-2.1-8.2-1.4c-20.6,5.2-42.3,7.9-64.3,7.9
			c-20.9,0-41.5-2.4-61.3-7.2c-2.8-0.7-5.7-0.1-8.1,1.5c-2.4,1.6-4,4.2-4.4,7l-9,63.6H159l-13.4-94.5c-0.4-2.9-2.1-5.5-4.5-7.1
			c-2-1.3-4.2-2.7-6.4-4.1c-20.6-13.1-46.3-29.4-55.9-62.4c-1-3.3-3.5-5.9-6.7-6.9l-50.8-16c-0.6-0.2-1-0.7-1-1.3v-59.9
			c0-0.8,0.6-1.4,1.4-1.4h56.9c3.8,0,7.3-2.1,9-5.4c10.1-19.2,25.9-37.2,45.8-52.1c2.3-1.7,3.8-4.4,4-7.2c0.3-2.9-0.7-5.7-2.7-7.8
			l-24.9-26.8c18.3-3,37.4,3,50.7,16.8c3,3.1,7.7,4,11.6,2.2c30.5-13.9,65.1-21.3,100.1-21.3c109,0,197.7,65.1,197.7,145.2
			C469.9,296.6,446.9,335.4,406.8,362.8z" />
        </g>
    </g>
    <g>
        <g>
            <path style="fill:#0FC4E4;" d="M126.1,183c-5.6,0-10.2,4.6-10.2,10.2v11.9c0,5.6,4.6,10.2,10.2,10.2s10.2-4.6,10.2-10.2v-11.9
			C136.3,187.6,131.7,183,126.1,183z" />
        </g>
    </g>
    <g>
        <g>
            <path style="fill:#0FC4E4;" d="M311.2,126.7h-6.5c-5.6,0-10.2,4.6-10.2,10.2c0,5.6,4.6,10.2,10.2,10.2h6.5
			c5.6,0,10.2-4.6,10.2-10.2S316.9,126.7,311.2,126.7z" />
        </g>
    </g>
    <g>
        <g>
            <path style="fill:#0FC4E4;" d="M263.6,126.7h-34.7c-5.6,0-10.2,4.6-10.2,10.2c0,5.6,4.6,10.2,10.2,10.2h34.7
			c5.6,0,10.2-4.6,10.2-10.2S269.2,126.7,263.6,126.7z" />
        </g>
    </g>
</svg>