<?xml version="1.0" encoding="utf-8"?>
<!-- Generator: Adobe Illustrator 21.0.2, SVG Export Plug-In . SVG Version: 6.00 Build 0)  -->
<svg version="1.1" id="Layer_1" xmlns="http://www.w3.org/2000/svg" xmlns:xlink="http://www.w3.org/1999/xlink" x="0px" y="0px" viewBox="0 0 512.9 512.9" style="enable-background:new 0 0 512.9 512.9;" xml:space="preserve" width="65" height="65">
    <g transform="translate(1)">
        <g>
            <g>
                <path style="fill:#C2C6C6;" d="M482,387.1c-11.3-7.9-24.4-12-37.6-12.2c-45.9-30.1-76.1-52.8-93.8-70.5l-41.2-41.2
				c4.4-1.4,8.2-2.3,10.5-2.3c4.3,0,6.8-1.7,8.5-5.1L501.6,83.3c13.7-13.7,13.7-35.8,0-49.5l-23-23c-13.7-13.7-35.8-13.7-49.5,0
				L253.3,185.7c-2.6,2.6-3.2,6.1-1.9,9.1c-0.3,1.9-0.9,4.2-1.7,6.8l-42.4-42.4c-31.5-31.5-53.6-61.3-70.7-94.5
				c-0.9-16.8-7.6-32.5-19.8-44.6C102.3,5.7,81.8-1.2,61.3,0.6c-2.6,0.9-5.1,2.6-6,4.3c-1.7,2.6-1.7,6,0,8.5L79.2,56
				c-5.1,11.1-17.1,17.9-29,17.1l-24.7-41c-0.9-2.6-4.3-4.3-6.8-4.3c-2.6-0.9-5.1,0.9-6.8,3.4C-8.7,62-1,103,29.7,124.3
				c10.6,7.6,22.5,11.8,34.6,12.6c0.1,0.1,0.3,0.1,0.4,0.2c33.3,17.1,63.1,39.3,93.9,70l36.7,36.7l-13.7,13.7
				c-3.4,3.4-3.4,8.5,0,11.9l12.4,12.4L45.1,430.6L7.5,456.2c-1.7,1.7-3.4,3.4-3.4,6l-5.1,41c0,2.6,0.9,5.1,2.6,6.8s3.4,2.6,6,2.6
				c0.9,0,0.9,0,0.9,0l41-5.1c2.6,0,4.3-1.7,6-3.4l24.3-35.7c0.5-0.3,0.9-0.6,1.3-1l148.9-149.7l12.4,12.4c1.7,1.7,3.4,2.6,6,2.6
				s5.1-1.7,6.8-2.6l13-13.5l35.7,35.7c17.9,17.9,40.9,49.4,71.6,95.4c1.1,16.4,7.8,31.8,19.7,43.6c12.8,12.8,29.9,19.6,47.8,19.6
				c2.6,0,5.1,0,6.8,0c2.6,0,5.1-1.7,6.8-4.3s1.7-6,0-8.5l-24.7-41.8c6-11.1,17.1-17.9,29.9-17.1l23.9,41c0.9,2.6,4.3,4.3,6.8,4.3
				c3.4-0.9,6-1.7,7.7-4.3C520.4,449.4,511.9,408.4,482,387.1z M290,251.4c-6,2.6-13.7,6.8-18.8,11.9c-4.1,4.1-6.5,9.7-7.7,15.4
				L232,247.2c6-0.9,11.9-3.4,16.2-7.7c6-5.1,11.9-17.9,16.2-29.9l37.5,37.5c-2.8,1-5.7,2.2-8.5,3.4
				C292.3,250.6,291.2,250.8,290,251.4z M441,22.7c6.8-6.8,17.9-6.8,24.7,0l23,23c6.8,6.8,6.8,17.9,0,24.7L319.4,239.1l-47.8-47.8
				L441,22.7z M19.5,54.3L37.4,85c1.7,2.6,4.3,4.3,6.8,4.3h4.3c19.6,0.9,37.5-9.4,46.1-26.5l1.7-4.3c1.7-2.6,1.7-5.1,0-7.7
				L77.5,18.5c10.2,1.7,19.6,6.8,27.3,14.5c8.8,9.5,14.4,21.6,14.8,34.5c-0.2,0.7-0.3,1.4-0.3,2.2c0,4-0.5,7.8-1.4,11.5
				c-3.2,12.4-10.9,23.1-21.7,30.3c-17.1,11.1-40.1,11.1-57.2-0.9C21.2,97.8,13.5,74.8,19.5,54.3z M92.9,132.8
				c4.3-1.7,9.4-4.3,13.7-6.8c12.8-8.5,21.3-19.6,26.5-33.3c16.2,27.3,36.7,52.9,62.3,78.5l47.3,47.3c-1.9,3.5-3.8,6.5-5.5,8.2
				c-5.1,4.3-17.9,3.4-23.9,3.4c-2.1,0-4.1,0.6-5.8,1.9l-36-36C144.9,169.5,120.2,149,92.9,132.8z M44.2,490.4l-27.3,3.4l3.4-26.5
				L48.8,448l14.7,14.7L44.2,490.4z M74.1,449.4l-11.9-11.9l144.2-143.4l11.9,11.9L74.1,449.4z M248.2,311.2l-47.8-47.8l11.9-11.9
				l47.5,47.5c-0.3,0.4-0.5,0.9-0.7,1.3L248.2,311.2z M280.4,305c1.2-1.7,1.9-3.7,1.9-5.8l0,0l0,0c-0.3-2.6-0.6-5.8-0.6-9.2
				c0-5.6,0.9-11.5,4.1-14.7c1.1-1.3,3-2.7,5.5-4.2c0,0,0,0,0.1,0c1-0.6,2-1.1,3.1-1.7l46.9,46.9c15.3,16.2,41.7,36.6,80,62.1
				c-5.6,1.9-11,4.5-16,7.8c-12.6,8.8-21.9,20.8-26.6,34.8c-4.9-7.2-9.6-14-14.2-20.4l11.8-11.8c3.4-3.4,3.4-8.5,0-11.9
				c-3.4-3.4-8.5-3.4-11.9,0l-9.9,9.9c-3.5-4.8-7-9.3-10.3-13.6l8.2-8.2c3.4-3.4,3.4-8.5,0-11.9c-3.4-3.4-8.5-3.4-11.9,0l-6.9,6.9
				c-6.1-7.4-11.8-13.6-17-18.8L280.4,305z M491.4,457.1l-17.9-30.7c-1.7-2.6-4.3-4.3-6.8-4.3h-4.3c-19.6-1.7-37.5,9.4-46.1,26.5
				l-1.7,4.3c-1.7,2.6-1.7,5.1,0,7.7l18.8,32.4c-10.2-1.7-19.6-6.8-27.3-14.5c-8.6-9.4-14.2-21.1-14.7-33.8c0.1-0.6,0.2-1.3,0.2-2
				c0-9.6,2.7-18.6,7.3-26.4c0,0,0,0,0,0c0,0,0-0.1,0.1-0.1c3.9-6.4,9.3-11.9,15.6-16.1c1-0.7,2.1-1.4,3.1-2
				c6.7-3.5,14.3-5.7,22.5-5.7c1.4,0,2.6-0.3,3.7-0.8c9.9,0.2,19.7,3.6,27.9,9.4C489.7,413.6,497.3,436.6,491.4,457.1z" />
                <path style="fill:#0FC4E4;" d="M308.8,202.8c1.7,1.7,3.4,2.6,6,2.6s4.3-0.9,6-2.6L465.8,57.7c3.4-3.4,3.4-8.5,0-11.9
				s-8.5-3.4-11.9,0L308.8,190.8C305.3,194.3,305.3,199.4,308.8,202.8z" />
            </g>
        </g>
    </g>
</svg>